<mxfile host="Electron" modified="2024-03-13T12:06:57.908Z" agent="Mozilla/5.0 (Windows NT 10.0; Win64; x64) AppleWebKit/537.36 (KHTML, like Gecko) draw.io/22.1.18 Chrome/120.0.6099.199 Electron/28.1.2 Safari/537.36" etag="RwOe6Apjltejq3FJrYld" version="22.1.18" type="device" pages="2">
  <diagram id="C5RBs43oDa-KdzZeNtuy" name="Page-1">
    <mxGraphModel dx="646" dy="1751" grid="1" gridSize="10" guides="1" tooltips="1" connect="1" arrows="1" fold="1" page="1" pageScale="1" pageWidth="827" pageHeight="1169" math="0" shadow="0">
      <root>
        <mxCell id="WIyWlLk6GJQsqaUBKTNV-0" />
        <mxCell id="WIyWlLk6GJQsqaUBKTNV-1" parent="WIyWlLk6GJQsqaUBKTNV-0" />
        <mxCell id="p40mZFfEyr0itNdM8INP-0" value="USER" style="swimlane;fontStyle=0;childLayout=stackLayout;horizontal=1;startSize=30;horizontalStack=0;resizeParent=1;resizeParentMax=0;resizeLast=0;collapsible=1;marginBottom=0;whiteSpace=wrap;html=1;" vertex="1" parent="WIyWlLk6GJQsqaUBKTNV-1">
          <mxGeometry x="200" y="130" width="140" height="270" as="geometry" />
        </mxCell>
        <mxCell id="p40mZFfEyr0itNdM8INP-1" value="Id : INT" style="text;strokeColor=none;fillColor=none;align=left;verticalAlign=middle;spacingLeft=4;spacingRight=4;overflow=hidden;points=[[0,0.5],[1,0.5]];portConstraint=eastwest;rotatable=0;whiteSpace=wrap;html=1;" vertex="1" parent="p40mZFfEyr0itNdM8INP-0">
          <mxGeometry y="30" width="140" height="30" as="geometry" />
        </mxCell>
        <mxCell id="p40mZFfEyr0itNdM8INP-2" value="Name : String" style="text;strokeColor=none;fillColor=none;align=left;verticalAlign=middle;spacingLeft=4;spacingRight=4;overflow=hidden;points=[[0,0.5],[1,0.5]];portConstraint=eastwest;rotatable=0;whiteSpace=wrap;html=1;" vertex="1" parent="p40mZFfEyr0itNdM8INP-0">
          <mxGeometry y="60" width="140" height="30" as="geometry" />
        </mxCell>
        <mxCell id="p40mZFfEyr0itNdM8INP-3" value="Email : String" style="text;strokeColor=none;fillColor=none;align=left;verticalAlign=middle;spacingLeft=4;spacingRight=4;overflow=hidden;points=[[0,0.5],[1,0.5]];portConstraint=eastwest;rotatable=0;whiteSpace=wrap;html=1;" vertex="1" parent="p40mZFfEyr0itNdM8INP-0">
          <mxGeometry y="90" width="140" height="30" as="geometry" />
        </mxCell>
        <mxCell id="p40mZFfEyr0itNdM8INP-4" value="Password : String" style="text;strokeColor=none;fillColor=none;align=left;verticalAlign=middle;spacingLeft=4;spacingRight=4;overflow=hidden;points=[[0,0.5],[1,0.5]];portConstraint=eastwest;rotatable=0;whiteSpace=wrap;html=1;" vertex="1" parent="p40mZFfEyr0itNdM8INP-0">
          <mxGeometry y="120" width="140" height="30" as="geometry" />
        </mxCell>
        <mxCell id="p40mZFfEyr0itNdM8INP-5" value="Role : Enum" style="text;strokeColor=none;fillColor=none;align=left;verticalAlign=middle;spacingLeft=4;spacingRight=4;overflow=hidden;points=[[0,0.5],[1,0.5]];portConstraint=eastwest;rotatable=0;whiteSpace=wrap;html=1;" vertex="1" parent="p40mZFfEyr0itNdM8INP-0">
          <mxGeometry y="150" width="140" height="30" as="geometry" />
        </mxCell>
        <mxCell id="p40mZFfEyr0itNdM8INP-7" value="+login()" style="text;strokeColor=none;fillColor=none;align=left;verticalAlign=middle;spacingLeft=4;spacingRight=4;overflow=hidden;points=[[0,0.5],[1,0.5]];portConstraint=eastwest;rotatable=0;whiteSpace=wrap;html=1;" vertex="1" parent="p40mZFfEyr0itNdM8INP-0">
          <mxGeometry y="180" width="140" height="30" as="geometry" />
        </mxCell>
        <mxCell id="p40mZFfEyr0itNdM8INP-8" value="+Register()" style="text;strokeColor=none;fillColor=none;align=left;verticalAlign=middle;spacingLeft=4;spacingRight=4;overflow=hidden;points=[[0,0.5],[1,0.5]];portConstraint=eastwest;rotatable=0;whiteSpace=wrap;html=1;" vertex="1" parent="p40mZFfEyr0itNdM8INP-0">
          <mxGeometry y="210" width="140" height="30" as="geometry" />
        </mxCell>
        <mxCell id="p40mZFfEyr0itNdM8INP-9" value="+Logout()" style="text;strokeColor=none;fillColor=none;align=left;verticalAlign=middle;spacingLeft=4;spacingRight=4;overflow=hidden;points=[[0,0.5],[1,0.5]];portConstraint=eastwest;rotatable=0;whiteSpace=wrap;html=1;" vertex="1" parent="p40mZFfEyr0itNdM8INP-0">
          <mxGeometry y="240" width="140" height="30" as="geometry" />
        </mxCell>
        <mxCell id="p40mZFfEyr0itNdM8INP-10" value="Reservation" style="swimlane;fontStyle=0;childLayout=stackLayout;horizontal=1;startSize=30;horizontalStack=0;resizeParent=1;resizeParentMax=0;resizeLast=0;collapsible=1;marginBottom=0;whiteSpace=wrap;html=1;" vertex="1" parent="WIyWlLk6GJQsqaUBKTNV-1">
          <mxGeometry x="500" y="190" width="140" height="240" as="geometry" />
        </mxCell>
        <mxCell id="p40mZFfEyr0itNdM8INP-11" value="id : INT" style="text;strokeColor=none;fillColor=none;align=left;verticalAlign=middle;spacingLeft=4;spacingRight=4;overflow=hidden;points=[[0,0.5],[1,0.5]];portConstraint=eastwest;rotatable=0;whiteSpace=wrap;html=1;" vertex="1" parent="p40mZFfEyr0itNdM8INP-10">
          <mxGeometry y="30" width="140" height="30" as="geometry" />
        </mxCell>
        <mxCell id="p40mZFfEyr0itNdM8INP-12" value="Confirmation : Bool" style="text;strokeColor=none;fillColor=none;align=left;verticalAlign=middle;spacingLeft=4;spacingRight=4;overflow=hidden;points=[[0,0.5],[1,0.5]];portConstraint=eastwest;rotatable=0;whiteSpace=wrap;html=1;" vertex="1" parent="p40mZFfEyr0itNdM8INP-10">
          <mxGeometry y="60" width="140" height="30" as="geometry" />
        </mxCell>
        <mxCell id="p40mZFfEyr0itNdM8INP-13" value="+read()" style="text;strokeColor=none;fillColor=none;align=left;verticalAlign=middle;spacingLeft=4;spacingRight=4;overflow=hidden;points=[[0,0.5],[1,0.5]];portConstraint=eastwest;rotatable=0;whiteSpace=wrap;html=1;" vertex="1" parent="p40mZFfEyr0itNdM8INP-10">
          <mxGeometry y="90" width="140" height="30" as="geometry" />
        </mxCell>
        <mxCell id="p40mZFfEyr0itNdM8INP-14" value="+Create()" style="text;strokeColor=none;fillColor=none;align=left;verticalAlign=middle;spacingLeft=4;spacingRight=4;overflow=hidden;points=[[0,0.5],[1,0.5]];portConstraint=eastwest;rotatable=0;whiteSpace=wrap;html=1;" vertex="1" parent="p40mZFfEyr0itNdM8INP-10">
          <mxGeometry y="120" width="140" height="30" as="geometry" />
        </mxCell>
        <mxCell id="p40mZFfEyr0itNdM8INP-15" value="+update()" style="text;strokeColor=none;fillColor=none;align=left;verticalAlign=middle;spacingLeft=4;spacingRight=4;overflow=hidden;points=[[0,0.5],[1,0.5]];portConstraint=eastwest;rotatable=0;whiteSpace=wrap;html=1;" vertex="1" parent="p40mZFfEyr0itNdM8INP-10">
          <mxGeometry y="150" width="140" height="30" as="geometry" />
        </mxCell>
        <mxCell id="p40mZFfEyr0itNdM8INP-16" value="+Delete()" style="text;strokeColor=none;fillColor=none;align=left;verticalAlign=middle;spacingLeft=4;spacingRight=4;overflow=hidden;points=[[0,0.5],[1,0.5]];portConstraint=eastwest;rotatable=0;whiteSpace=wrap;html=1;" vertex="1" parent="p40mZFfEyr0itNdM8INP-10">
          <mxGeometry y="180" width="140" height="30" as="geometry" />
        </mxCell>
        <mxCell id="p40mZFfEyr0itNdM8INP-17" value="+Confirm()" style="text;strokeColor=none;fillColor=none;align=left;verticalAlign=middle;spacingLeft=4;spacingRight=4;overflow=hidden;points=[[0,0.5],[1,0.5]];portConstraint=eastwest;rotatable=0;whiteSpace=wrap;html=1;" vertex="1" parent="p40mZFfEyr0itNdM8INP-10">
          <mxGeometry y="210" width="140" height="30" as="geometry" />
        </mxCell>
        <mxCell id="p40mZFfEyr0itNdM8INP-18" value="Event" style="swimlane;fontStyle=0;childLayout=stackLayout;horizontal=1;startSize=30;horizontalStack=0;resizeParent=1;resizeParentMax=0;resizeLast=0;collapsible=1;marginBottom=0;whiteSpace=wrap;html=1;" vertex="1" parent="WIyWlLk6GJQsqaUBKTNV-1">
          <mxGeometry x="360" y="510" width="140" height="450" as="geometry" />
        </mxCell>
        <mxCell id="p40mZFfEyr0itNdM8INP-19" value="Id : INT" style="text;strokeColor=none;fillColor=none;align=left;verticalAlign=middle;spacingLeft=4;spacingRight=4;overflow=hidden;points=[[0,0.5],[1,0.5]];portConstraint=eastwest;rotatable=0;whiteSpace=wrap;html=1;" vertex="1" parent="p40mZFfEyr0itNdM8INP-18">
          <mxGeometry y="30" width="140" height="30" as="geometry" />
        </mxCell>
        <mxCell id="p40mZFfEyr0itNdM8INP-20" value="title : String" style="text;strokeColor=none;fillColor=none;align=left;verticalAlign=middle;spacingLeft=4;spacingRight=4;overflow=hidden;points=[[0,0.5],[1,0.5]];portConstraint=eastwest;rotatable=0;whiteSpace=wrap;html=1;" vertex="1" parent="p40mZFfEyr0itNdM8INP-18">
          <mxGeometry y="60" width="140" height="30" as="geometry" />
        </mxCell>
        <mxCell id="p40mZFfEyr0itNdM8INP-21" value="Description : String" style="text;strokeColor=none;fillColor=none;align=left;verticalAlign=middle;spacingLeft=4;spacingRight=4;overflow=hidden;points=[[0,0.5],[1,0.5]];portConstraint=eastwest;rotatable=0;whiteSpace=wrap;html=1;" vertex="1" parent="p40mZFfEyr0itNdM8INP-18">
          <mxGeometry y="90" width="140" height="30" as="geometry" />
        </mxCell>
        <mxCell id="p40mZFfEyr0itNdM8INP-22" value="Date : date" style="text;strokeColor=none;fillColor=none;align=left;verticalAlign=middle;spacingLeft=4;spacingRight=4;overflow=hidden;points=[[0,0.5],[1,0.5]];portConstraint=eastwest;rotatable=0;whiteSpace=wrap;html=1;" vertex="1" parent="p40mZFfEyr0itNdM8INP-18">
          <mxGeometry y="120" width="140" height="30" as="geometry" />
        </mxCell>
        <mxCell id="p40mZFfEyr0itNdM8INP-23" value="Address : date" style="text;strokeColor=none;fillColor=none;align=left;verticalAlign=middle;spacingLeft=4;spacingRight=4;overflow=hidden;points=[[0,0.5],[1,0.5]];portConstraint=eastwest;rotatable=0;whiteSpace=wrap;html=1;" vertex="1" parent="p40mZFfEyr0itNdM8INP-18">
          <mxGeometry y="150" width="140" height="30" as="geometry" />
        </mxCell>
        <mxCell id="p40mZFfEyr0itNdM8INP-24" value="PlaceNumber : INT" style="text;strokeColor=none;fillColor=none;align=left;verticalAlign=middle;spacingLeft=4;spacingRight=4;overflow=hidden;points=[[0,0.5],[1,0.5]];portConstraint=eastwest;rotatable=0;whiteSpace=wrap;html=1;" vertex="1" parent="p40mZFfEyr0itNdM8INP-18">
          <mxGeometry y="180" width="140" height="30" as="geometry" />
        </mxCell>
        <mxCell id="p40mZFfEyr0itNdM8INP-25" value="IsAccepted : BOOL" style="text;strokeColor=none;fillColor=none;align=left;verticalAlign=middle;spacingLeft=4;spacingRight=4;overflow=hidden;points=[[0,0.5],[1,0.5]];portConstraint=eastwest;rotatable=0;whiteSpace=wrap;html=1;" vertex="1" parent="p40mZFfEyr0itNdM8INP-18">
          <mxGeometry y="210" width="140" height="30" as="geometry" />
        </mxCell>
        <mxCell id="p40mZFfEyr0itNdM8INP-26" value="Status : Bool" style="text;strokeColor=none;fillColor=none;align=left;verticalAlign=middle;spacingLeft=4;spacingRight=4;overflow=hidden;points=[[0,0.5],[1,0.5]];portConstraint=eastwest;rotatable=0;whiteSpace=wrap;html=1;" vertex="1" parent="p40mZFfEyr0itNdM8INP-18">
          <mxGeometry y="240" width="140" height="30" as="geometry" />
        </mxCell>
        <mxCell id="p40mZFfEyr0itNdM8INP-27" value="Price : Float" style="text;strokeColor=none;fillColor=none;align=left;verticalAlign=middle;spacingLeft=4;spacingRight=4;overflow=hidden;points=[[0,0.5],[1,0.5]];portConstraint=eastwest;rotatable=0;whiteSpace=wrap;html=1;" vertex="1" parent="p40mZFfEyr0itNdM8INP-18">
          <mxGeometry y="270" width="140" height="30" as="geometry" />
        </mxCell>
        <mxCell id="p40mZFfEyr0itNdM8INP-28" value="+read()" style="text;strokeColor=none;fillColor=none;align=left;verticalAlign=middle;spacingLeft=4;spacingRight=4;overflow=hidden;points=[[0,0.5],[1,0.5]];portConstraint=eastwest;rotatable=0;whiteSpace=wrap;html=1;" vertex="1" parent="p40mZFfEyr0itNdM8INP-18">
          <mxGeometry y="300" width="140" height="30" as="geometry" />
        </mxCell>
        <mxCell id="p40mZFfEyr0itNdM8INP-29" value="+create()" style="text;strokeColor=none;fillColor=none;align=left;verticalAlign=middle;spacingLeft=4;spacingRight=4;overflow=hidden;points=[[0,0.5],[1,0.5]];portConstraint=eastwest;rotatable=0;whiteSpace=wrap;html=1;" vertex="1" parent="p40mZFfEyr0itNdM8INP-18">
          <mxGeometry y="330" width="140" height="30" as="geometry" />
        </mxCell>
        <mxCell id="p40mZFfEyr0itNdM8INP-30" value="+update()" style="text;strokeColor=none;fillColor=none;align=left;verticalAlign=middle;spacingLeft=4;spacingRight=4;overflow=hidden;points=[[0,0.5],[1,0.5]];portConstraint=eastwest;rotatable=0;whiteSpace=wrap;html=1;" vertex="1" parent="p40mZFfEyr0itNdM8INP-18">
          <mxGeometry y="360" width="140" height="30" as="geometry" />
        </mxCell>
        <mxCell id="p40mZFfEyr0itNdM8INP-31" value="+Delete()" style="text;strokeColor=none;fillColor=none;align=left;verticalAlign=middle;spacingLeft=4;spacingRight=4;overflow=hidden;points=[[0,0.5],[1,0.5]];portConstraint=eastwest;rotatable=0;whiteSpace=wrap;html=1;" vertex="1" parent="p40mZFfEyr0itNdM8INP-18">
          <mxGeometry y="390" width="140" height="30" as="geometry" />
        </mxCell>
        <mxCell id="p40mZFfEyr0itNdM8INP-32" value="+Validate()" style="text;strokeColor=none;fillColor=none;align=left;verticalAlign=middle;spacingLeft=4;spacingRight=4;overflow=hidden;points=[[0,0.5],[1,0.5]];portConstraint=eastwest;rotatable=0;whiteSpace=wrap;html=1;" vertex="1" parent="p40mZFfEyr0itNdM8INP-18">
          <mxGeometry y="420" width="140" height="30" as="geometry" />
        </mxCell>
        <mxCell id="p40mZFfEyr0itNdM8INP-33" value="Category" style="swimlane;fontStyle=0;childLayout=stackLayout;horizontal=1;startSize=30;horizontalStack=0;resizeParent=1;resizeParentMax=0;resizeLast=0;collapsible=1;marginBottom=0;whiteSpace=wrap;html=1;" vertex="1" parent="WIyWlLk6GJQsqaUBKTNV-1">
          <mxGeometry x="70" y="590" width="140" height="210" as="geometry" />
        </mxCell>
        <mxCell id="p40mZFfEyr0itNdM8INP-34" value="id : INT" style="text;strokeColor=none;fillColor=none;align=left;verticalAlign=middle;spacingLeft=4;spacingRight=4;overflow=hidden;points=[[0,0.5],[1,0.5]];portConstraint=eastwest;rotatable=0;whiteSpace=wrap;html=1;" vertex="1" parent="p40mZFfEyr0itNdM8INP-33">
          <mxGeometry y="30" width="140" height="30" as="geometry" />
        </mxCell>
        <mxCell id="p40mZFfEyr0itNdM8INP-35" value="Name : String" style="text;strokeColor=none;fillColor=none;align=left;verticalAlign=middle;spacingLeft=4;spacingRight=4;overflow=hidden;points=[[0,0.5],[1,0.5]];portConstraint=eastwest;rotatable=0;whiteSpace=wrap;html=1;" vertex="1" parent="p40mZFfEyr0itNdM8INP-33">
          <mxGeometry y="60" width="140" height="30" as="geometry" />
        </mxCell>
        <mxCell id="p40mZFfEyr0itNdM8INP-36" value="+ Read ()&amp;nbsp;" style="text;strokeColor=none;fillColor=none;align=left;verticalAlign=middle;spacingLeft=4;spacingRight=4;overflow=hidden;points=[[0,0.5],[1,0.5]];portConstraint=eastwest;rotatable=0;whiteSpace=wrap;html=1;" vertex="1" parent="p40mZFfEyr0itNdM8INP-33">
          <mxGeometry y="90" width="140" height="30" as="geometry" />
        </mxCell>
        <mxCell id="p40mZFfEyr0itNdM8INP-37" value="+ Create ()&amp;nbsp;" style="text;strokeColor=none;fillColor=none;align=left;verticalAlign=middle;spacingLeft=4;spacingRight=4;overflow=hidden;points=[[0,0.5],[1,0.5]];portConstraint=eastwest;rotatable=0;whiteSpace=wrap;html=1;" vertex="1" parent="p40mZFfEyr0itNdM8INP-33">
          <mxGeometry y="120" width="140" height="30" as="geometry" />
        </mxCell>
        <mxCell id="p40mZFfEyr0itNdM8INP-38" value="+ Update ()&amp;nbsp;" style="text;strokeColor=none;fillColor=none;align=left;verticalAlign=middle;spacingLeft=4;spacingRight=4;overflow=hidden;points=[[0,0.5],[1,0.5]];portConstraint=eastwest;rotatable=0;whiteSpace=wrap;html=1;" vertex="1" parent="p40mZFfEyr0itNdM8INP-33">
          <mxGeometry y="150" width="140" height="30" as="geometry" />
        </mxCell>
        <mxCell id="p40mZFfEyr0itNdM8INP-39" value="+ Delete ()&amp;nbsp;" style="text;strokeColor=none;fillColor=none;align=left;verticalAlign=middle;spacingLeft=4;spacingRight=4;overflow=hidden;points=[[0,0.5],[1,0.5]];portConstraint=eastwest;rotatable=0;whiteSpace=wrap;html=1;" vertex="1" parent="p40mZFfEyr0itNdM8INP-33">
          <mxGeometry y="180" width="140" height="30" as="geometry" />
        </mxCell>
        <mxCell id="p40mZFfEyr0itNdM8INP-40" value="" style="endArrow=classic;html=1;rounded=0;entryX=-0.01;entryY=0.817;entryDx=0;entryDy=0;entryPerimeter=0;" edge="1" parent="WIyWlLk6GJQsqaUBKTNV-1" target="p40mZFfEyr0itNdM8INP-23">
          <mxGeometry width="50" height="50" relative="1" as="geometry">
            <mxPoint x="210" y="720" as="sourcePoint" />
            <mxPoint x="260" y="670" as="targetPoint" />
          </mxGeometry>
        </mxCell>
        <mxCell id="p40mZFfEyr0itNdM8INP-41" value="1" style="text;html=1;align=center;verticalAlign=middle;resizable=0;points=[];autosize=1;strokeColor=none;fillColor=none;" vertex="1" parent="WIyWlLk6GJQsqaUBKTNV-1">
          <mxGeometry x="210" y="720" width="30" height="30" as="geometry" />
        </mxCell>
        <mxCell id="p40mZFfEyr0itNdM8INP-42" value="N*" style="text;html=1;align=center;verticalAlign=middle;resizable=0;points=[];autosize=1;strokeColor=none;fillColor=none;" vertex="1" parent="WIyWlLk6GJQsqaUBKTNV-1">
          <mxGeometry x="330" y="690" width="40" height="30" as="geometry" />
        </mxCell>
        <mxCell id="p40mZFfEyr0itNdM8INP-43" value="" style="endArrow=classic;html=1;rounded=0;exitX=0;exitY=0.5;exitDx=0;exitDy=0;entryX=0.25;entryY=0;entryDx=0;entryDy=0;" edge="1" parent="WIyWlLk6GJQsqaUBKTNV-1" source="p40mZFfEyr0itNdM8INP-3" target="p40mZFfEyr0itNdM8INP-33">
          <mxGeometry width="50" height="50" relative="1" as="geometry">
            <mxPoint x="230" y="560" as="sourcePoint" />
            <mxPoint x="280" y="510" as="targetPoint" />
          </mxGeometry>
        </mxCell>
        <mxCell id="p40mZFfEyr0itNdM8INP-44" value="1" style="text;html=1;align=center;verticalAlign=middle;resizable=0;points=[];autosize=1;strokeColor=none;fillColor=none;" vertex="1" parent="WIyWlLk6GJQsqaUBKTNV-1">
          <mxGeometry x="165" y="218" width="30" height="30" as="geometry" />
        </mxCell>
        <mxCell id="p40mZFfEyr0itNdM8INP-45" value="N*" style="text;html=1;align=center;verticalAlign=middle;resizable=0;points=[];autosize=1;strokeColor=none;fillColor=none;" vertex="1" parent="WIyWlLk6GJQsqaUBKTNV-1">
          <mxGeometry x="70" y="558" width="40" height="30" as="geometry" />
        </mxCell>
        <mxCell id="p40mZFfEyr0itNdM8INP-46" value="" style="endArrow=classic;startArrow=classic;html=1;rounded=0;exitX=1;exitY=0.5;exitDx=0;exitDy=0;entryX=-0.028;entryY=0.133;entryDx=0;entryDy=0;entryPerimeter=0;" edge="1" parent="WIyWlLk6GJQsqaUBKTNV-1" source="p40mZFfEyr0itNdM8INP-3" target="p40mZFfEyr0itNdM8INP-14">
          <mxGeometry width="50" height="50" relative="1" as="geometry">
            <mxPoint x="400" y="300" as="sourcePoint" />
            <mxPoint x="450" y="250" as="targetPoint" />
          </mxGeometry>
        </mxCell>
        <mxCell id="p40mZFfEyr0itNdM8INP-47" value="N*" style="text;html=1;align=center;verticalAlign=middle;resizable=0;points=[];autosize=1;strokeColor=none;fillColor=none;" vertex="1" parent="WIyWlLk6GJQsqaUBKTNV-1">
          <mxGeometry x="340" y="208" width="40" height="30" as="geometry" />
        </mxCell>
        <mxCell id="p40mZFfEyr0itNdM8INP-48" value="N*" style="text;html=1;align=center;verticalAlign=middle;resizable=0;points=[];autosize=1;strokeColor=none;fillColor=none;" vertex="1" parent="WIyWlLk6GJQsqaUBKTNV-1">
          <mxGeometry x="460" y="278" width="40" height="30" as="geometry" />
        </mxCell>
        <mxCell id="p40mZFfEyr0itNdM8INP-49" value="" style="endArrow=classic;startArrow=classic;html=1;rounded=0;entryX=0;entryY=0.5;entryDx=0;entryDy=0;exitX=0.352;exitY=-0.005;exitDx=0;exitDy=0;exitPerimeter=0;" edge="1" parent="WIyWlLk6GJQsqaUBKTNV-1" source="p40mZFfEyr0itNdM8INP-18" target="p40mZFfEyr0itNdM8INP-15">
          <mxGeometry width="50" height="50" relative="1" as="geometry">
            <mxPoint x="410" y="380" as="sourcePoint" />
            <mxPoint x="460" y="330" as="targetPoint" />
          </mxGeometry>
        </mxCell>
        <mxCell id="p40mZFfEyr0itNdM8INP-50" value="N*" style="text;html=1;align=center;verticalAlign=middle;resizable=0;points=[];autosize=1;strokeColor=none;fillColor=none;" vertex="1" parent="WIyWlLk6GJQsqaUBKTNV-1">
          <mxGeometry x="370" y="478" width="40" height="30" as="geometry" />
        </mxCell>
        <mxCell id="p40mZFfEyr0itNdM8INP-51" value="N*" style="text;html=1;align=center;verticalAlign=middle;resizable=0;points=[];autosize=1;strokeColor=none;fillColor=none;" vertex="1" parent="WIyWlLk6GJQsqaUBKTNV-1">
          <mxGeometry x="460" y="348" width="40" height="30" as="geometry" />
        </mxCell>
        <mxCell id="p40mZFfEyr0itNdM8INP-53" value="" style="endArrow=classic;startArrow=classic;html=1;rounded=0;exitX=0.012;exitY=0.071;exitDx=0;exitDy=0;exitPerimeter=0;entryX=0.605;entryY=1.082;entryDx=0;entryDy=0;entryPerimeter=0;" edge="1" parent="WIyWlLk6GJQsqaUBKTNV-1" source="p40mZFfEyr0itNdM8INP-18" target="p40mZFfEyr0itNdM8INP-9">
          <mxGeometry width="50" height="50" relative="1" as="geometry">
            <mxPoint x="260" y="470" as="sourcePoint" />
            <mxPoint x="310" y="420" as="targetPoint" />
          </mxGeometry>
        </mxCell>
        <mxCell id="p40mZFfEyr0itNdM8INP-54" value="N*" style="text;html=1;align=center;verticalAlign=middle;resizable=0;points=[];autosize=1;strokeColor=none;fillColor=none;" vertex="1" parent="WIyWlLk6GJQsqaUBKTNV-1">
          <mxGeometry x="250" y="398" width="40" height="30" as="geometry" />
        </mxCell>
        <mxCell id="p40mZFfEyr0itNdM8INP-55" value="N*" style="text;html=1;align=center;verticalAlign=middle;resizable=0;points=[];autosize=1;strokeColor=none;fillColor=none;" vertex="1" parent="WIyWlLk6GJQsqaUBKTNV-1">
          <mxGeometry x="320" y="528" width="40" height="30" as="geometry" />
        </mxCell>
      </root>
    </mxGraphModel>
  </diagram>
  <diagram id="uww6Dgrwir9btfS_RHZq" name="Page-2">
    <mxGraphModel dx="1731" dy="2452" grid="1" gridSize="10" guides="1" tooltips="1" connect="1" arrows="1" fold="1" page="1" pageScale="1" pageWidth="827" pageHeight="1169" math="0" shadow="0">
      <root>
        <mxCell id="0" />
        <mxCell id="1" parent="0" />
        <mxCell id="XyDwF29D5Uo-PZG0Mu8M-1" value="User" style="shape=umlActor;verticalLabelPosition=bottom;verticalAlign=top;html=1;outlineConnect=0;" vertex="1" parent="1">
          <mxGeometry x="10" y="150" width="30" height="60" as="geometry" />
        </mxCell>
        <mxCell id="XyDwF29D5Uo-PZG0Mu8M-2" value="Organisateur" style="shape=umlActor;verticalLabelPosition=bottom;verticalAlign=top;html=1;outlineConnect=0;" vertex="1" parent="1">
          <mxGeometry x="10" y="470" width="30" height="60" as="geometry" />
        </mxCell>
        <mxCell id="XyDwF29D5Uo-PZG0Mu8M-3" value="Admin" style="shape=umlActor;verticalLabelPosition=bottom;verticalAlign=top;html=1;outlineConnect=0;" vertex="1" parent="1">
          <mxGeometry x="10" y="700" width="30" height="60" as="geometry" />
        </mxCell>
        <mxCell id="XyDwF29D5Uo-PZG0Mu8M-5" value="Read Events" style="ellipse;whiteSpace=wrap;html=1;" vertex="1" parent="1">
          <mxGeometry x="150" y="60" width="120" height="30" as="geometry" />
        </mxCell>
        <mxCell id="XyDwF29D5Uo-PZG0Mu8M-6" value="Search" style="ellipse;whiteSpace=wrap;html=1;" vertex="1" parent="1">
          <mxGeometry x="150" y="100" width="120" height="30" as="geometry" />
        </mxCell>
        <mxCell id="XyDwF29D5Uo-PZG0Mu8M-7" value="Filter events" style="ellipse;whiteSpace=wrap;html=1;" vertex="1" parent="1">
          <mxGeometry x="150" y="140" width="120" height="30" as="geometry" />
        </mxCell>
        <mxCell id="XyDwF29D5Uo-PZG0Mu8M-8" value="reserve une place" style="ellipse;whiteSpace=wrap;html=1;" vertex="1" parent="1">
          <mxGeometry x="150" y="180" width="120" height="30" as="geometry" />
        </mxCell>
        <mxCell id="XyDwF29D5Uo-PZG0Mu8M-9" value="generate ticket" style="ellipse;whiteSpace=wrap;html=1;" vertex="1" parent="1">
          <mxGeometry x="150" y="220" width="120" height="30" as="geometry" />
        </mxCell>
        <mxCell id="XyDwF29D5Uo-PZG0Mu8M-10" value="Payment" style="ellipse;whiteSpace=wrap;html=1;" vertex="1" parent="1">
          <mxGeometry x="300" y="110" width="120" height="50" as="geometry" />
        </mxCell>
        <mxCell id="XyDwF29D5Uo-PZG0Mu8M-11" value="Authentification" style="ellipse;whiteSpace=wrap;html=1;" vertex="1" parent="1">
          <mxGeometry x="630" y="320" width="120" height="50" as="geometry" />
        </mxCell>
        <mxCell id="XyDwF29D5Uo-PZG0Mu8M-12" value="discover site" style="ellipse;whiteSpace=wrap;html=1;" vertex="1" parent="1">
          <mxGeometry x="150" y="20" width="120" height="30" as="geometry" />
        </mxCell>
        <mxCell id="XyDwF29D5Uo-PZG0Mu8M-13" value="" style="endArrow=none;dashed=1;html=1;dashPattern=1 3;strokeWidth=2;rounded=0;entryX=1;entryY=0.5;entryDx=0;entryDy=0;exitX=0;exitY=1;exitDx=0;exitDy=0;" edge="1" parent="1" source="XyDwF29D5Uo-PZG0Mu8M-10" target="XyDwF29D5Uo-PZG0Mu8M-8">
          <mxGeometry width="50" height="50" relative="1" as="geometry">
            <mxPoint x="400" y="280" as="sourcePoint" />
            <mxPoint x="450" y="230" as="targetPoint" />
          </mxGeometry>
        </mxCell>
        <mxCell id="XyDwF29D5Uo-PZG0Mu8M-14" value="" style="endArrow=classic;html=1;rounded=0;exitX=1;exitY=0.5;exitDx=0;exitDy=0;entryX=0.352;entryY=-0.009;entryDx=0;entryDy=0;entryPerimeter=0;" edge="1" parent="1" source="XyDwF29D5Uo-PZG0Mu8M-10" target="XyDwF29D5Uo-PZG0Mu8M-11">
          <mxGeometry relative="1" as="geometry">
            <mxPoint x="460" y="260" as="sourcePoint" />
            <mxPoint x="620" y="260" as="targetPoint" />
          </mxGeometry>
        </mxCell>
        <mxCell id="XyDwF29D5Uo-PZG0Mu8M-15" value="include" style="edgeLabel;resizable=0;html=1;align=center;verticalAlign=middle;" connectable="0" vertex="1" parent="XyDwF29D5Uo-PZG0Mu8M-14">
          <mxGeometry relative="1" as="geometry" />
        </mxCell>
        <mxCell id="XyDwF29D5Uo-PZG0Mu8M-16" value="Source" style="edgeLabel;resizable=0;html=1;align=left;verticalAlign=bottom;" connectable="0" vertex="1" parent="XyDwF29D5Uo-PZG0Mu8M-14">
          <mxGeometry x="-1" relative="1" as="geometry" />
        </mxCell>
        <mxCell id="XyDwF29D5Uo-PZG0Mu8M-17" value="" style="endArrow=none;dashed=1;html=1;dashPattern=1 3;strokeWidth=2;rounded=0;exitX=1;exitY=0.5;exitDx=0;exitDy=0;entryX=0.282;entryY=1.076;entryDx=0;entryDy=0;entryPerimeter=0;" edge="1" parent="1" source="XyDwF29D5Uo-PZG0Mu8M-9" target="XyDwF29D5Uo-PZG0Mu8M-10">
          <mxGeometry width="50" height="50" relative="1" as="geometry">
            <mxPoint x="450" y="480" as="sourcePoint" />
            <mxPoint x="500" y="430" as="targetPoint" />
          </mxGeometry>
        </mxCell>
        <mxCell id="XyDwF29D5Uo-PZG0Mu8M-18" value="Create event" style="ellipse;whiteSpace=wrap;html=1;" vertex="1" parent="1">
          <mxGeometry x="150" y="290" width="120" height="30" as="geometry" />
        </mxCell>
        <mxCell id="XyDwF29D5Uo-PZG0Mu8M-19" value="Manage Events" style="ellipse;whiteSpace=wrap;html=1;" vertex="1" parent="1">
          <mxGeometry x="150" y="330" width="120" height="30" as="geometry" />
        </mxCell>
        <mxCell id="XyDwF29D5Uo-PZG0Mu8M-20" value="manage reservation" style="ellipse;whiteSpace=wrap;html=1;" vertex="1" parent="1">
          <mxGeometry x="150" y="370" width="120" height="30" as="geometry" />
        </mxCell>
        <mxCell id="XyDwF29D5Uo-PZG0Mu8M-21" value="Statistics" style="ellipse;whiteSpace=wrap;html=1;" vertex="1" parent="1">
          <mxGeometry x="150" y="420" width="120" height="30" as="geometry" />
        </mxCell>
        <mxCell id="XyDwF29D5Uo-PZG0Mu8M-22" value="" style="endArrow=none;html=1;rounded=0;exitX=1;exitY=0.3333333333333333;exitDx=0;exitDy=0;exitPerimeter=0;entryX=0;entryY=0.5;entryDx=0;entryDy=0;" edge="1" parent="1" source="XyDwF29D5Uo-PZG0Mu8M-1" target="XyDwF29D5Uo-PZG0Mu8M-12">
          <mxGeometry width="50" height="50" relative="1" as="geometry">
            <mxPoint x="110" y="370" as="sourcePoint" />
            <mxPoint x="160" y="320" as="targetPoint" />
          </mxGeometry>
        </mxCell>
        <mxCell id="XyDwF29D5Uo-PZG0Mu8M-23" value="" style="endArrow=none;html=1;rounded=0;exitX=1;exitY=0.3333333333333333;exitDx=0;exitDy=0;exitPerimeter=0;entryX=0;entryY=0.5;entryDx=0;entryDy=0;" edge="1" parent="1" source="XyDwF29D5Uo-PZG0Mu8M-1" target="XyDwF29D5Uo-PZG0Mu8M-5">
          <mxGeometry width="50" height="50" relative="1" as="geometry">
            <mxPoint x="110" y="370" as="sourcePoint" />
            <mxPoint x="160" y="320" as="targetPoint" />
          </mxGeometry>
        </mxCell>
        <mxCell id="XyDwF29D5Uo-PZG0Mu8M-24" value="" style="endArrow=none;html=1;rounded=0;entryX=0;entryY=0.5;entryDx=0;entryDy=0;" edge="1" parent="1" target="XyDwF29D5Uo-PZG0Mu8M-6">
          <mxGeometry width="50" height="50" relative="1" as="geometry">
            <mxPoint x="40" y="170" as="sourcePoint" />
            <mxPoint x="160" y="320" as="targetPoint" />
          </mxGeometry>
        </mxCell>
        <mxCell id="XyDwF29D5Uo-PZG0Mu8M-25" value="" style="endArrow=none;html=1;rounded=0;entryX=0;entryY=0.5;entryDx=0;entryDy=0;" edge="1" parent="1" target="XyDwF29D5Uo-PZG0Mu8M-7">
          <mxGeometry width="50" height="50" relative="1" as="geometry">
            <mxPoint x="40" y="170" as="sourcePoint" />
            <mxPoint x="160" y="320" as="targetPoint" />
          </mxGeometry>
        </mxCell>
        <mxCell id="XyDwF29D5Uo-PZG0Mu8M-26" value="" style="endArrow=none;html=1;rounded=0;entryX=0;entryY=0.5;entryDx=0;entryDy=0;" edge="1" parent="1" target="XyDwF29D5Uo-PZG0Mu8M-8">
          <mxGeometry width="50" height="50" relative="1" as="geometry">
            <mxPoint x="40" y="170" as="sourcePoint" />
            <mxPoint x="160" y="320" as="targetPoint" />
          </mxGeometry>
        </mxCell>
        <mxCell id="XyDwF29D5Uo-PZG0Mu8M-27" value="" style="endArrow=none;html=1;rounded=0;entryX=0;entryY=0.5;entryDx=0;entryDy=0;" edge="1" parent="1" target="XyDwF29D5Uo-PZG0Mu8M-9">
          <mxGeometry width="50" height="50" relative="1" as="geometry">
            <mxPoint x="40" y="170" as="sourcePoint" />
            <mxPoint x="160" y="320" as="targetPoint" />
          </mxGeometry>
        </mxCell>
        <mxCell id="XyDwF29D5Uo-PZG0Mu8M-28" value="" style="endArrow=none;html=1;rounded=0;exitX=1;exitY=0.3333333333333333;exitDx=0;exitDy=0;exitPerimeter=0;entryX=0;entryY=0.5;entryDx=0;entryDy=0;" edge="1" parent="1" source="XyDwF29D5Uo-PZG0Mu8M-2" target="XyDwF29D5Uo-PZG0Mu8M-18">
          <mxGeometry width="50" height="50" relative="1" as="geometry">
            <mxPoint x="120" y="360" as="sourcePoint" />
            <mxPoint x="170" y="310" as="targetPoint" />
          </mxGeometry>
        </mxCell>
        <mxCell id="XyDwF29D5Uo-PZG0Mu8M-29" value="" style="endArrow=none;html=1;rounded=0;entryX=0;entryY=1;entryDx=0;entryDy=0;" edge="1" parent="1" target="XyDwF29D5Uo-PZG0Mu8M-19">
          <mxGeometry width="50" height="50" relative="1" as="geometry">
            <mxPoint x="40" y="490" as="sourcePoint" />
            <mxPoint x="170" y="310" as="targetPoint" />
          </mxGeometry>
        </mxCell>
        <mxCell id="XyDwF29D5Uo-PZG0Mu8M-30" value="" style="endArrow=none;html=1;rounded=0;entryX=0;entryY=0.5;entryDx=0;entryDy=0;" edge="1" parent="1" target="XyDwF29D5Uo-PZG0Mu8M-20">
          <mxGeometry width="50" height="50" relative="1" as="geometry">
            <mxPoint x="50" y="490" as="sourcePoint" />
            <mxPoint x="170" y="310" as="targetPoint" />
          </mxGeometry>
        </mxCell>
        <mxCell id="XyDwF29D5Uo-PZG0Mu8M-31" value="" style="endArrow=none;html=1;rounded=0;entryX=0;entryY=0.5;entryDx=0;entryDy=0;" edge="1" parent="1" target="XyDwF29D5Uo-PZG0Mu8M-21">
          <mxGeometry width="50" height="50" relative="1" as="geometry">
            <mxPoint x="40" y="490" as="sourcePoint" />
            <mxPoint x="170" y="310" as="targetPoint" />
          </mxGeometry>
        </mxCell>
        <mxCell id="XyDwF29D5Uo-PZG0Mu8M-32" value="" style="endArrow=none;dashed=1;html=1;dashPattern=1 3;strokeWidth=2;rounded=0;entryX=1;entryY=0.5;entryDx=0;entryDy=0;" edge="1" parent="1" target="XyDwF29D5Uo-PZG0Mu8M-18">
          <mxGeometry width="50" height="50" relative="1" as="geometry">
            <mxPoint x="640" y="450" as="sourcePoint" />
            <mxPoint x="300" y="310" as="targetPoint" />
          </mxGeometry>
        </mxCell>
        <mxCell id="XyDwF29D5Uo-PZG0Mu8M-33" value="Validate Events" style="ellipse;whiteSpace=wrap;html=1;" vertex="1" parent="1">
          <mxGeometry x="640" y="430" width="120" height="50" as="geometry" />
        </mxCell>
        <mxCell id="XyDwF29D5Uo-PZG0Mu8M-35" value="" style="endArrow=none;dashed=1;html=1;dashPattern=1 3;strokeWidth=2;rounded=0;exitX=1;exitY=0.5;exitDx=0;exitDy=0;entryX=0;entryY=0.5;entryDx=0;entryDy=0;" edge="1" parent="1" source="XyDwF29D5Uo-PZG0Mu8M-19" target="XyDwF29D5Uo-PZG0Mu8M-11">
          <mxGeometry width="50" height="50" relative="1" as="geometry">
            <mxPoint x="350" y="500" as="sourcePoint" />
            <mxPoint x="400" y="450" as="targetPoint" />
          </mxGeometry>
        </mxCell>
        <mxCell id="XyDwF29D5Uo-PZG0Mu8M-36" value="" style="endArrow=none;dashed=1;html=1;dashPattern=1 3;strokeWidth=2;rounded=0;exitX=1;exitY=0.5;exitDx=0;exitDy=0;entryX=0.012;entryY=0.776;entryDx=0;entryDy=0;entryPerimeter=0;" edge="1" parent="1" source="XyDwF29D5Uo-PZG0Mu8M-20" target="XyDwF29D5Uo-PZG0Mu8M-11">
          <mxGeometry width="50" height="50" relative="1" as="geometry">
            <mxPoint x="380" y="490" as="sourcePoint" />
            <mxPoint x="430" y="440" as="targetPoint" />
          </mxGeometry>
        </mxCell>
        <mxCell id="XyDwF29D5Uo-PZG0Mu8M-37" value="" style="endArrow=none;dashed=1;html=1;dashPattern=1 3;strokeWidth=2;rounded=0;exitX=1;exitY=0.5;exitDx=0;exitDy=0;entryX=0.267;entryY=1.038;entryDx=0;entryDy=0;entryPerimeter=0;" edge="1" parent="1" source="XyDwF29D5Uo-PZG0Mu8M-21" target="XyDwF29D5Uo-PZG0Mu8M-11">
          <mxGeometry width="50" height="50" relative="1" as="geometry">
            <mxPoint x="380" y="490" as="sourcePoint" />
            <mxPoint x="430" y="440" as="targetPoint" />
          </mxGeometry>
        </mxCell>
        <mxCell id="XyDwF29D5Uo-PZG0Mu8M-39" value="Managae Users" style="ellipse;whiteSpace=wrap;html=1;" vertex="1" parent="1">
          <mxGeometry x="120" y="690" width="120" height="30" as="geometry" />
        </mxCell>
        <mxCell id="XyDwF29D5Uo-PZG0Mu8M-40" value="Manage Categories" style="ellipse;whiteSpace=wrap;html=1;" vertex="1" parent="1">
          <mxGeometry x="130" y="740" width="120" height="30" as="geometry" />
        </mxCell>
        <mxCell id="XyDwF29D5Uo-PZG0Mu8M-41" value="" style="endArrow=none;html=1;rounded=0;exitX=0.5;exitY=0.5;exitDx=0;exitDy=0;exitPerimeter=0;entryX=0;entryY=0.5;entryDx=0;entryDy=0;" edge="1" parent="1" source="XyDwF29D5Uo-PZG0Mu8M-3" target="XyDwF29D5Uo-PZG0Mu8M-39">
          <mxGeometry width="50" height="50" relative="1" as="geometry">
            <mxPoint x="250" y="870" as="sourcePoint" />
            <mxPoint x="300" y="820" as="targetPoint" />
          </mxGeometry>
        </mxCell>
        <mxCell id="XyDwF29D5Uo-PZG0Mu8M-42" value="" style="endArrow=none;html=1;rounded=0;exitX=0.5;exitY=0.5;exitDx=0;exitDy=0;exitPerimeter=0;entryX=0;entryY=0.5;entryDx=0;entryDy=0;" edge="1" parent="1" source="XyDwF29D5Uo-PZG0Mu8M-3" target="XyDwF29D5Uo-PZG0Mu8M-40">
          <mxGeometry width="50" height="50" relative="1" as="geometry">
            <mxPoint x="250" y="870" as="sourcePoint" />
            <mxPoint x="300" y="820" as="targetPoint" />
          </mxGeometry>
        </mxCell>
        <mxCell id="XyDwF29D5Uo-PZG0Mu8M-43" value="" style="endArrow=none;dashed=1;html=1;dashPattern=1 3;strokeWidth=2;rounded=0;exitX=1;exitY=0.5;exitDx=0;exitDy=0;" edge="1" parent="1" source="XyDwF29D5Uo-PZG0Mu8M-39">
          <mxGeometry width="50" height="50" relative="1" as="geometry">
            <mxPoint x="350" y="870" as="sourcePoint" />
            <mxPoint x="660" y="370" as="targetPoint" />
          </mxGeometry>
        </mxCell>
        <mxCell id="XyDwF29D5Uo-PZG0Mu8M-44" value="" style="endArrow=none;dashed=1;html=1;dashPattern=1 3;strokeWidth=2;rounded=0;exitX=1;exitY=0.5;exitDx=0;exitDy=0;entryX=0.5;entryY=1;entryDx=0;entryDy=0;" edge="1" parent="1" source="XyDwF29D5Uo-PZG0Mu8M-40" target="XyDwF29D5Uo-PZG0Mu8M-11">
          <mxGeometry width="50" height="50" relative="1" as="geometry">
            <mxPoint x="350" y="870" as="sourcePoint" />
            <mxPoint x="400" y="820" as="targetPoint" />
          </mxGeometry>
        </mxCell>
        <mxCell id="XyDwF29D5Uo-PZG0Mu8M-47" value="" style="edgeStyle=elbowEdgeStyle;elbow=vertical;endArrow=classic;html=1;curved=0;rounded=0;endSize=8;startSize=8;entryX=0.5;entryY=1;entryDx=0;entryDy=0;" edge="1" parent="1" source="XyDwF29D5Uo-PZG0Mu8M-3" target="XyDwF29D5Uo-PZG0Mu8M-33">
          <mxGeometry width="50" height="50" relative="1" as="geometry">
            <mxPoint x="270" y="880" as="sourcePoint" />
            <mxPoint x="320" y="830" as="targetPoint" />
          </mxGeometry>
        </mxCell>
      </root>
    </mxGraphModel>
  </diagram>
</mxfile>
